# xmcd
#
# Track frame offsets: 
#        167
#        14997
#        24130
#        46410
#        63342
#        89392
#        104425
#        125597
#        139795
#        158175
#        174210
#        196150
#        209000
#        222470
#
# Disc length: 3162 seconds
#
# Revision: 0
# Processed by: cddbd v1.5.2PL0 Copyright (c) Steve Scherf et al.
# Submitted via: ExactAudioCopyFreeDBPlugin 1.0
#
DISCID=ca0c580e
DTITLE=Pete Mayes - Lowdown Feeling
DYEAR=1992
DGENRE=Blues
TTITLE0=Crazy Woman
TTITLE1=Moving Out
TTITLE2=Christmas Holidays
TTITLE3=Locked Out
TTITLE4=West Coast Blues
TTITLE5=When I'm Wrong I'm Wrong
TTITLE6=Something On Your Mind
TTITLE7=I'm Ready
TTITLE8=Back In School
TTITLE9=Honeysucker
TTITLE10=The Word Is Out
TTITLE11=Texas Jump
TTITLE12=Low Down Feeling
TTITLE13=Crazy Woman (New Version)
EXTD=
EXTT0=
EXTT1=
EXTT2=
EXTT3=
EXTT4=
EXTT5=
EXTT6=
EXTT7=
EXTT8=
EXTT9=
EXTT10=
EXTT11=
EXTT12=
EXTT13=
PLAYORDER=
